<mxfile host="Electron" modified="2024-02-04T21:04:05.921Z" agent="Mozilla/5.0 (Windows NT 10.0; Win64; x64) AppleWebKit/537.36 (KHTML, like Gecko) draw.io/23.0.2 Chrome/120.0.6099.109 Electron/28.1.0 Safari/537.36" etag="ON1bQ98YOifSsP98kR5r" version="23.0.2" type="device">
  <diagram name="Page-1" id="JdwTRaGaH6Fa1Zd9T8EJ">
    <mxGraphModel dx="794" dy="511" grid="1" gridSize="10" guides="1" tooltips="1" connect="1" arrows="1" fold="1" page="1" pageScale="1" pageWidth="827" pageHeight="1169" math="0" shadow="0">
      <root>
        <mxCell id="0" />
        <mxCell id="1" parent="0" />
        <UserObject label="User" type="externalEntity" placeholders="1" id="Q2TfjrEhd7ifIuI3TEUh-1">
          <mxCell style="shape=rectangle;whiteSpace=wrap;html=1;fillColor=#ffffff;strokeColor=#000000;align=center;verticalAlign=middle;fontColor=#232F3E;" vertex="1" parent="1">
            <mxGeometry x="20" y="20" width="55" height="35" as="geometry" />
          </mxCell>
        </UserObject>
        <UserObject label="Zip Code Entry" type="process" placeholders="1" id="Q2TfjrEhd7ifIuI3TEUh-2">
          <mxCell style="shape=ellipse;perimeter=ellipsePerimeter;whiteSpace=wrap;html=1;fillColor=#ffffff;strokeColor=#000000;align=center;verticalAlign=middle;fontColor=#232F3E;" vertex="1" parent="1">
            <mxGeometry x="20" y="115" width="105" height="35" as="geometry" />
          </mxCell>
        </UserObject>
        <UserObject label="Recycling Facilities List" type="dataStore" placeholders="1" id="Q2TfjrEhd7ifIuI3TEUh-3">
          <mxCell style="html=1;dashed=0;whiteSpace=wrap;shape=partialRectangle;right=0;left=0;" vertex="1" parent="1">
            <mxGeometry x="20" y="210" width="155" height="35" as="geometry" />
          </mxCell>
        </UserObject>
        <UserObject label="Facility Information Update" type="process" placeholders="1" id="Q2TfjrEhd7ifIuI3TEUh-4">
          <mxCell style="shape=ellipse;perimeter=ellipsePerimeter;whiteSpace=wrap;html=1;fillColor=#ffffff;strokeColor=#000000;align=center;verticalAlign=middle;fontColor=#232F3E;" vertex="1" parent="1">
            <mxGeometry x="20" y="305" width="175" height="35" as="geometry" />
          </mxCell>
        </UserObject>
        <UserObject label="Recyclable Waste Selection" type="process" placeholders="1" id="Q2TfjrEhd7ifIuI3TEUh-5">
          <mxCell style="shape=ellipse;perimeter=ellipsePerimeter;whiteSpace=wrap;html=1;fillColor=#ffffff;strokeColor=#000000;align=center;verticalAlign=middle;fontColor=#232F3E;" vertex="1" parent="1">
            <mxGeometry x="20" y="400" width="175" height="35" as="geometry" />
          </mxCell>
        </UserObject>
        <UserObject label="Facility List with Opening Hours" type="dataStore" placeholders="1" id="Q2TfjrEhd7ifIuI3TEUh-6">
          <mxCell style="html=1;dashed=0;whiteSpace=wrap;shape=partialRectangle;right=0;left=0;" vertex="1" parent="1">
            <mxGeometry x="20" y="495" width="195" height="35" as="geometry" />
          </mxCell>
        </UserObject>
        <UserObject label="Optimal Route and Schedule" type="process" placeholders="1" id="Q2TfjrEhd7ifIuI3TEUh-7">
          <mxCell style="shape=ellipse;perimeter=ellipsePerimeter;whiteSpace=wrap;html=1;fillColor=#ffffff;strokeColor=#000000;align=center;verticalAlign=middle;fontColor=#232F3E;" vertex="1" parent="1">
            <mxGeometry x="20" y="590" width="185" height="35" as="geometry" />
          </mxCell>
        </UserObject>
        <UserObject label="Admin Portal" type="process" placeholders="1" id="Q2TfjrEhd7ifIuI3TEUh-8">
          <mxCell style="shape=ellipse;perimeter=ellipsePerimeter;whiteSpace=wrap;html=1;fillColor=#ffffff;strokeColor=#000000;align=center;verticalAlign=middle;fontColor=#232F3E;" vertex="1" parent="1">
            <mxGeometry x="20" y="685" width="95" height="35" as="geometry" />
          </mxCell>
        </UserObject>
        <UserObject label="Recycling Facilities Database" type="dataStore" placeholders="1" id="Q2TfjrEhd7ifIuI3TEUh-9">
          <mxCell style="html=1;dashed=0;whiteSpace=wrap;shape=partialRectangle;right=0;left=0;" vertex="1" parent="1">
            <mxGeometry x="20" y="780" width="185" height="35" as="geometry" />
          </mxCell>
        </UserObject>
        <UserObject label="Public Recycling Bins Map" type="process" placeholders="1" id="Q2TfjrEhd7ifIuI3TEUh-10">
          <mxCell style="shape=ellipse;perimeter=ellipsePerimeter;whiteSpace=wrap;html=1;fillColor=#ffffff;strokeColor=#000000;align=center;verticalAlign=middle;fontColor=#232F3E;" vertex="1" parent="1">
            <mxGeometry x="20" y="875" width="165" height="35" as="geometry" />
          </mxCell>
        </UserObject>
        <UserObject label="Recycling Facility Information Update" type="process" placeholders="1" id="Q2TfjrEhd7ifIuI3TEUh-11">
          <mxCell style="shape=ellipse;perimeter=ellipsePerimeter;whiteSpace=wrap;html=1;fillColor=#ffffff;strokeColor=#000000;align=center;verticalAlign=middle;fontColor=#232F3E;" vertex="1" parent="1">
            <mxGeometry x="20" y="970" width="225" height="35" as="geometry" />
          </mxCell>
        </UserObject>
      </root>
    </mxGraphModel>
  </diagram>
</mxfile>
